# xmcd
#
# Track frame offsets: 
#        183
#        18665
#        36058
#        51043
#        75435
#        102253
#        119915
#        137885
#
# Disc length: 2065 seconds
#
# Revision: 4
# Processed by: cddbd v1.5.2PL0 Copyright (c) Steve Scherf et al.
# Submitted via: ExactAudioCopy v1.3
#
DISCID=68080f08
DTITLE=Diana Ross - Diana
DYEAR=1980
DGENRE=Blues
TTITLE0=Upside Down
TTITLE1=Tenderness
TTITLE2=Friend To Friend
TTITLE3=I'm Coming Out
TTITLE4=Have Fun (Again)
TTITLE5=My Old Piano
TTITLE6=Now That You're Gone
TTITLE7=Give Up
EXTD=
EXTT0=
EXTT1=
EXTT2=
EXTT3=
EXTT4=
EXTT5=
EXTT6=
EXTT7=
PLAYORDER=
